<?xml version="1.0" encoding="utf-8"?>
<!-- Svg Vector Icons : http://www.onlinewebfonts.com/icon -->
<!DOCTYPE svg PUBLIC "-//W3C//DTD SVG 1.1//EN" "http://www.w3.org/Graphics/SVG/1.1/DTD/svg11.dtd">
<svg version="1.1" xmlns="http://www.w3.org/2000/svg" xmlns:xlink="http://www.w3.org/1999/xlink" x="0px" y="0px" viewBox="0 0 1000 1000" enable-background="new 0 0 1000 1000" xml:space="preserve">
<metadata> Svg Vector Icons : http://www.onlinewebfonts.com/icon </metadata>
<g><g transform="translate(0.000000,502.000000) scale(0.100000,-0.100000)"><path d="M1263.5,4898.5c-35.2-11.7-107.5-62.5-158.3-115.3c-78.2-80.1-111.4-99.7-242.3-134.8c-285.4-78.2-504.2-216.9-598.1-377.2c-48.9-87.9-58.6-123.1-58.6-244.3c0-173.9,70.4-596.1,187.6-1116C792.5,1126.5,1394.5-153.6,2064.8-654c129-95.8,134.8-103.6,134.8-181.8c0-203.3,93.8-537.5,218.9-777.9c86-164.2,240.4-349.8,330.3-396.7c54.7-27.4,56.7-35.2,56.7-162.2c0-289.3,68.4-756.3,148.5-1008.5c304.9-963.5,998.7-1495.1,2167.4-1663.2c349.9-50.8,1018.2-46.9,1319.2,7.8c660.6,119.2,1119.9,355.7,1499,770c336.1,369.4,560.9,875.6,635.2,1424.8l21.5,168.1l146.6,35.2c238.4,56.7,437.8,170,631.3,361.6c187.6,185.7,287.3,344,365.5,582.4c64.5,195.4,72.3,564.8,17.6,766.1c-111.4,396.7-377.2,721.2-746.6,899c-205.2,99.7-365.5,136.8-607.8,136.8c-392.9,0-703.6-129-987-410.4c-275.6-273.6-406.5-592.2-408.5-988.9c0-633.2,431.9-1188.3,1053.4-1348.5l130.9-33.2l-15.7-119.2c-62.5-459.3-248.2-883.4-515.9-1184.4c-431.9-482.7-1022.2-703.6-1886-703.6c-1331,0-2126.4,457.3-2429.3,1395.4c-60.6,187.6-121.2,557-138.8,834.5l-11.7,209.1l70.4,43c244.3,150.5,484.7,660.6,527.7,1114c13.7,144.6,15.6,146.6,89.9,195.4c43,25.4,136.8,105.5,209.1,175.9c613.7,588.3,1149.2,1798,1506.8,3406.5c181.8,813,222.8,1137.5,170,1297.7c-64.5,193.5-306.8,365.5-650.8,459.3c-132.9,37.1-166.1,54.7-201.3,107.5c-54.7,80.1-216.9,162.2-320.5,162.2c-175.9-2-340.1-136.8-383.1-312.7c-58.6-246.3,140.7-488.6,400.6-488.6c76.2,0,213,64.5,269.7,125.1l46.9,48.9l115.3-35.2c144.6-43,236.5-89.9,302.9-152.5c60.6-56.7,60.6-50.8-13.7-494.5c-144.6-858-426.1-1854.7-715.3-2540.7c-256-603.9-596.1-1137.5-858-1350.5c-123.1-99.7-121.2-99.7-224.8-50.8c-89.9,41.1-121.2,43-535.5,43c-416.3,0-445.6-2-535.5-45c-109.4-50.8-121.2-46.9-281.4,101.6c-430,392.8-875.6,1299.7-1207.8,2458.6c-150.5,525.7-330.3,1372-369.4,1727.7l-13.7,121.2l87.9,60.6c46.9,31.3,150.5,80.1,230.6,107.5l142.7,46.9l78.2-66.4c132.9-115.3,273.6-132.9,435.8-58.6c138.8,64.5,207.2,170,216.9,332.3c7.8,146.6-46.9,267.8-164.2,349.8C1533.2,4910.2,1374.9,4931.7,1263.5,4898.5z M8625.8-112.6c459.3-109.4,766.1-494.5,766.1-965.5c0-293.2-86-502.3-291.2-707.5c-203.3-203.3-414.3-291.2-701.6-291.2c-621.5,0-1100.3,574.6-977.2,1170.7c44.9,222.8,119.2,361.6,279.5,521.8C7955.4-126.3,8281.8-32.5,8625.8-112.6z M3388-812.3c7.8-142.7-52.8-385-144.6-574.6c-66.4-138.8-195.4-299-238.4-299c-52.8,0-175.9,142.7-244.3,283.4c-117.3,234.5-193.5,607.8-142.7,689.9c9.8,17.6,113.4,23.5,388.9,19.6l375.2-5.9L3388-812.3z"/><path d="M8215.4-511.3C8059-562.1,7889-732.1,7836.2-888.5c-43-132.9-29.3-345.9,29.3-461.2c56.7-113.3,168.1-220.8,285.3-277.5c134.9-66.5,347.9-66.5,492.5-2c134.8,60.6,261.9,197.4,318.6,345.9c103.6,273.6-23.4,598.1-287.3,730.9c-72.3,37.1-129,48.9-250.1,52.8C8338.5-497.6,8244.7-503.5,8215.4-511.3z M8545.6-953c31.3-35.2,45-76.2,45-136.8c0-70.4-9.8-91.9-60.6-134.9c-103.6-88-244.3-64.5-302.9,50.8c-43,84-21.5,175.9,54.7,240.4c52.8,45,76.2,50.8,140.7,43C8475.3-898.3,8518.3-919.8,8545.6-953z"/></g></g>
</svg>